<?xml version="1.0" encoding="UTF-8" standalone="no"?>
<svg
   xmlns:dc="http://purl.org/dc/elements/1.1/"
   xmlns:cc="http://creativecommons.org/ns#"
   xmlns:rdf="http://www.w3.org/1999/02/22-rdf-syntax-ns#"
   xmlns:svg="http://www.w3.org/2000/svg"
   xmlns="http://www.w3.org/2000/svg"
   xmlns:sodipodi="http://sodipodi.sourceforge.net/DTD/sodipodi-0.dtd"
   xmlns:inkscape="http://www.inkscape.org/namespaces/inkscape"
   version="1.1"
   x="0px"
   y="0px"
   viewBox="0 0 42.937758 38.196479"
   enable-background="new 0 0 60 60"
   xml:space="preserve"
   id="svg3037"
   inkscape:version="0.48.5 r10040"
   width="100%"
   height="100%"
   sodipodi:docname="noun_256836.svg"><metadata
     id="metadata3049"><rdf:RDF><cc:Work
         rdf:about=""><dc:format>image/svg+xml</dc:format><dc:type
           rdf:resource="http://purl.org/dc/dcmitype/StillImage" /><dc:title></dc:title></cc:Work></rdf:RDF></metadata><defs
     id="defs3047" /><sodipodi:namedview
     pagecolor="#ffffff"
     bordercolor="#666666"
     borderopacity="1"
     objecttolerance="10"
     gridtolerance="10"
     guidetolerance="10"
     inkscape:pageopacity="0"
     inkscape:pageshadow="2"
     inkscape:window-width="1910"
     inkscape:window-height="1166"
     id="namedview3045"
     showgrid="false"
     fit-margin-top="2"
     fit-margin-left="2"
     fit-margin-right="2"
     fit-margin-bottom="2"
     inkscape:zoom="5.8395235"
     inkscape:cx="9.6415521"
     inkscape:cy="31.55555"
     inkscape:window-x="5"
     inkscape:window-y="29"
     inkscape:window-maximized="0"
     inkscape:current-layer="svg3037" /><g
     id="g3039"
     transform="translate(-8.9036535,-14.901519)"><path
       d="m 20.264,35.88 1.541,-2.371 c 0.169,-0.259 0.467,-0.41 0.777,-0.37 0.309,0.032 0.573,0.235 0.682,0.524 l 3.276,8.581 5.638,-12.537 c 0.132,-0.292 0.422,-0.482 0.743,-0.485 h 0.008 c 0.317,0 0.607,0.183 0.744,0.469 l 4.037,8.486 1.014,-1.882 c 0.145,-0.267 0.423,-0.433 0.725,-0.433 h 0.002 l 7.845,0.01 c 5.3,-8.997 1.508,-16.145 -3.935,-18.264 -7.144,-2.782 -12.945,3.55 -12.945,3.55 0,0 -0.039,-0.035 -0.044,-0.039 -0.004,0.004 -0.043,0.039 -0.043,0.039 0,0 -5.802,-6.332 -12.946,-3.55 -5.444,2.12 -9.236,9.271 -3.929,18.272 h 6.81 z"
       id="path3041"
       inkscape:connector-curvature="0" /><path
       d="m 39.941,37.51 -1.551,2.88 c -0.148,0.273 -0.386,0.429 -0.746,0.432 -0.311,-0.008 -0.589,-0.19 -0.723,-0.469 L 32.95,32.007 27.227,44.728 c -0.133,0.296 -0.428,0.486 -0.751,0.486 h -0.024 c -0.333,-0.01 -0.627,-0.219 -0.745,-0.529 l -3.404,-8.92 -0.902,1.388 c -0.152,0.233 -0.412,0.375 -0.69,0.375 h -6.223 c 2.987,4.271 8.01,8.895 15.884,13.57 7.879,-4.678 12.904,-9.306 15.89,-13.58 L 39.941,37.51 z"
       id="path3043"
       inkscape:connector-curvature="0" /></g></svg>